<svg width="44" height="44" viewBox="0 0 44 44" fill="none" xmlns="http://www.w3.org/2000/svg">
<path d="M22 43.25C17.7972 43.25 13.6887 42.0037 10.1941 39.6687C6.6996 37.3337 3.97593 34.0149 2.36757 30.132C0.759207 26.2491 0.338386 21.9764 1.15832 17.8543C1.97826 13.7322 4.00212 9.94584 6.97399 6.97397C9.94586 4.00211 13.7322 1.97824 17.8543 1.15831C21.9764 0.33837 26.2491 0.759192 30.132 2.36755C34.015 3.97592 37.3338 6.69958 39.6687 10.1941C42.0037 13.6887 43.25 17.7971 43.25 22C43.2523 24.7912 42.7042 27.5555 41.6371 30.1347C40.57 32.7139 39.0049 35.0574 37.0312 37.0311C35.0575 39.0048 32.714 40.57 30.1348 41.6371C27.5555 42.7042 24.7912 43.2523 22 43.25ZM22 5.74999C18.7861 5.74999 15.6443 6.70304 12.972 8.48861C10.2997 10.2742 8.21689 12.8121 6.98697 15.7814C5.75704 18.7507 5.43524 22.018 6.06225 25.1702C6.68926 28.3224 8.23692 31.2179 10.5095 33.4905C12.7821 35.7631 15.6776 37.3107 18.8298 37.9378C21.982 38.5648 25.2493 38.243 28.2186 37.013C31.1879 35.7831 33.7258 33.7003 35.5114 31.028C37.297 28.3557 38.25 25.2139 38.25 22C38.2543 19.8648 37.8369 17.7498 37.0218 15.7763C36.2067 13.8028 35.0099 12.0098 33.5 10.5C31.9902 8.99015 30.1972 7.79335 28.2237 6.97823C26.2502 6.1631 24.1352 5.74571 22 5.74999Z" fill="#C70136"/>
<path d="M29.1253 28.5001C28.8995 28.737 28.628 28.9256 28.3272 29.0545C28.0264 29.1833 27.7025 29.2498 27.3753 29.2498C27.048 29.2498 26.7242 29.1833 26.4234 29.0545C26.1226 28.9256 25.8511 28.737 25.6253 28.5001L22.0003 24.8751L18.5003 28.3751C18.0346 28.8315 17.4075 29.0857 16.7555 29.0824C16.1034 29.0791 15.479 28.8186 15.0179 28.3575C14.5568 27.8965 14.2963 27.272 14.293 26.62C14.2897 25.9679 14.5439 25.3409 15.0003 24.8751L18.5003 21.3751L15.0003 17.8751C14.5439 17.4094 14.2897 16.7824 14.293 16.1303C14.2963 15.4782 14.5568 14.8538 15.0179 14.3927C15.479 13.9316 16.1034 13.6711 16.7555 13.6678C17.4075 13.6645 18.0346 13.9187 18.5003 14.3751L22.0003 17.8751L25.5003 14.3751C25.966 13.9187 26.593 13.6645 27.2451 13.6678C27.8972 13.6711 28.5216 13.9316 28.9827 14.3927C29.4438 14.8538 29.7043 15.4782 29.7076 16.1303C29.7109 16.7824 29.4567 17.4094 29.0003 17.8751L25.5003 21.3751L29.0003 24.8751C29.469 25.3552 29.7417 25.9929 29.7648 26.6634C29.7879 27.3339 29.5598 27.989 29.1253 28.5001Z" fill="#C70136"/>
</svg>
