<svg width="25" height="25" viewBox="0 0 25 25" fill="none" xmlns="http://www.w3.org/2000/svg">
<path d="M13.7086 0.416748C10.372 0.416748 7.66699 3.1217 7.66699 6.45841C7.66699 7.12575 8.20798 7.66675 8.87533 7.66675C9.54266 7.66675 10.0837 7.12575 10.0837 6.45841C10.0837 4.45639 11.7067 2.83341 13.7086 2.83341H18.542C20.5441 2.83341 22.167 4.45639 22.167 6.45841V18.5417C22.167 20.5438 20.5441 22.1667 18.542 22.1667H13.7086C11.7067 22.1667 10.0837 20.5438 10.0837 18.5417C10.0837 17.8744 9.54266 17.3334 8.87533 17.3334C8.20798 17.3334 7.66699 17.8744 7.66699 18.5417C7.66699 21.8784 10.372 24.5834 13.7086 24.5834H18.542C21.8787 24.5834 24.5836 21.8784 24.5836 18.5417V6.45841C24.5836 3.1217 21.8787 0.416748 18.542 0.416748H13.7086Z" fill="white"/>
<path d="M4.90837 11.2916C5.01593 11.1589 5.11899 11.0302 5.21648 10.9073C5.51311 10.5331 5.76425 10.2046 5.94159 9.96906C6.03034 9.8512 6.10081 9.75636 6.14947 9.69045L6.20574 9.61397L6.22082 9.59333L6.22616 9.586C6.22621 9.58593 6.22677 9.58516 5.24921 8.87492L6.22616 9.586C6.61841 9.04611 6.49934 8.28962 5.95945 7.89736C5.41959 7.50512 4.66398 7.62478 4.27171 8.16461L4.2683 8.16928L4.25593 8.1862L4.20547 8.2548C4.16083 8.31525 4.09483 8.40407 4.01097 8.51545C3.8431 8.73841 3.60447 9.05064 3.32284 9.40583C2.75343 10.124 2.03224 10.9872 1.37396 11.6455L0.519531 12.4999L1.37396 13.3543C2.03224 14.0126 2.75343 14.8759 3.32284 15.594C3.60447 15.9492 3.8431 16.2615 4.01097 16.4844C4.09483 16.5958 4.16083 16.6846 4.20547 16.745L4.25593 16.8137L4.2683 16.8306L4.27112 16.8345C4.66339 17.3742 5.41959 17.4947 5.95945 17.1025C6.49934 16.7102 6.61903 15.9545 6.22677 15.4147L5.24921 16.1249C6.22677 15.4147 6.22683 15.4148 6.22677 15.4147L6.22082 15.4066L6.20574 15.3859L6.14947 15.3094C6.10081 15.2434 6.03034 15.1487 5.94159 15.0308C5.76425 14.7953 5.51311 14.4667 5.21648 14.0925C5.11899 13.9696 5.01593 13.8409 4.90837 13.7083H14.9159V11.2916H4.90837Z" fill="white"/>
</svg>
