<svg width="24" height="20" viewBox="0 0 24 20" fill="none" xmlns="http://www.w3.org/2000/svg">
<path d="M11.8341 7.5V11.8333M9.95736 8.58333L13.7101 10.75M13.7098 8.58333L9.95703 10.75" stroke="white" stroke-width="1.625" stroke-linecap="round"/>
<path d="M6.12704 7.5V11.8333M4.25025 8.58333L8.00302 10.75M8.00277 8.58333L4.25 10.75" stroke="white" stroke-width="1.625" stroke-linecap="round"/>
<path d="M17.5412 7.5V11.8333M15.6643 8.58333L19.4171 10.75M19.4168 8.58333L15.6641 10.75" stroke="white" stroke-width="1.625" stroke-linecap="round"/>
<path d="M22.6667 9.66667C22.6667 13.7521 22.6667 15.795 21.3974 17.0641C20.1283 18.3333 18.0855 18.3333 14 18.3333H9.66667C5.58116 18.3333 3.53841 18.3333 2.2692 17.0641C1 15.795 1 13.7521 1 9.66667C1 5.58116 1 3.53841 2.2692 2.2692C3.53841 1 5.58116 1 9.66667 1H14C18.0855 1 20.1283 1 21.3974 2.2692C22.1051 2.97681 22.4181 3.92488 22.5567 5.33333" stroke="white" stroke-width="1.625" stroke-linecap="round"/>
</svg>
