<svg width="30" height="33" viewBox="0 0 30 33" fill="none" xmlns="http://www.w3.org/2000/svg">
<path d="M3.73926 10.1249C5.16948 7.64514 7.37824 5.70677 10.0227 4.61064C12.6673 3.5145 15.5996 3.32191 18.3648 4.06274C21.1299 4.80357 23.5732 6.4364 25.3155 8.70783C27.0578 10.9793 28.0016 13.7623 28.0005 16.6249" stroke="white" stroke-width="3.25" stroke-linecap="round" stroke-linejoin="round"/>
<path d="M26.2613 23.125C24.831 25.6048 22.6223 27.5432 19.9778 28.6393C17.3333 29.7354 14.4009 29.928 11.6357 29.1872C8.87057 28.4464 6.42727 26.8135 4.68499 24.5421C2.94271 22.2707 1.99889 19.4877 2 16.625" stroke="white" stroke-width="3.25" stroke-linecap="round" stroke-linejoin="round"/>
<path d="M3.625 2V10.125H11.75" stroke="white" stroke-width="3.25" stroke-linecap="round" stroke-linejoin="round"/>
<path d="M26.375 31.25V23.125H18.25" stroke="white" stroke-width="3.25" stroke-linecap="round" stroke-linejoin="round"/>
</svg>
