<svg width="66" height="59" viewBox="0 0 66 59" fill="none" xmlns="http://www.w3.org/2000/svg">
<path fill-rule="evenodd" clip-rule="evenodd" d="M25.8582 58.422H40.1421C50.173 58.422 55.1883 58.422 58.791 56.0585C60.3504 55.0352 61.6896 53.7204 62.7319 52.1893C65.1391 48.6521 65.1391 43.7278 65.1391 33.8795C65.1391 24.0315 65.1391 19.1072 62.7319 15.57C61.6896 14.0387 60.3504 12.7239 58.791 11.7007C56.4757 10.182 53.5778 9.63914 49.1404 9.44512C47.0227 9.44512 45.1998 7.86974 44.7846 5.8311C44.1614 2.77318 41.4267 0.572021 38.2507 0.572021H27.7497C24.5736 0.572021 21.8389 2.77318 21.2159 5.8311C20.8007 7.86974 18.9775 9.44512 16.8601 9.44512C12.4227 9.63914 9.52453 10.182 7.20953 11.7007C5.64986 12.7239 4.31073 14.0387 3.2686 15.57C0.861329 19.1072 0.861328 24.0315 0.861328 33.8795C0.861328 43.7278 0.861329 48.6521 3.2686 52.1893C4.31073 53.7204 5.64986 55.0352 7.20953 56.0585C10.8123 58.422 15.8276 58.422 25.8582 58.422ZM33.0002 20.7319C25.6044 20.7319 19.609 26.6183 19.609 33.8795C19.609 41.1409 25.6044 47.0272 33.0002 47.0272C40.396 47.0272 46.3915 41.1409 46.3915 33.8795C46.3915 26.6183 40.396 20.7319 33.0002 20.7319ZM33.0002 25.991C28.5628 25.991 24.9655 29.5227 24.9655 33.8795C24.9655 38.2362 28.5628 41.7683 33.0002 41.7683C37.4376 41.7683 41.0349 38.2362 41.0349 33.8795C41.0349 29.5227 37.4376 25.991 33.0002 25.991ZM48.1768 23.3614C48.1768 21.9092 49.3759 20.7319 50.8553 20.7319H54.4263C55.9053 20.7319 57.1044 21.9092 57.1044 23.3614C57.1044 24.8137 55.9053 25.991 54.4263 25.991H50.8553C49.3759 25.991 48.1768 24.8137 48.1768 23.3614Z" fill="white"/>
</svg>
